<svg width="63" height="63" viewBox="0 0 63 63" fill="none" xmlns="http://www.w3.org/2000/svg">
<path d="M28.7891 28.7891C27.2916 30.2853 27.2916 32.7121 28.7878 34.209C30.2866 35.7084 32.7133 35.7071 34.2096 34.2096C35.709 32.7115 35.709 30.286 34.2096 28.7872C32.7133 27.2903 30.2872 27.2897 28.7891 28.7891Z" fill="#ADADAD"/>
<path d="M48.2257 49.8739C58.2881 39.7253 58.2641 23.2835 48.1488 13.1683C48.1344 13.1538 48.1173 13.1449 48.1029 13.1311L48.1066 13.1273L47.0382 12.0576L47.0256 12.0702C46.4415 11.6052 45.598 11.6323 45.0499 12.159L45.048 12.1571L45.0316 12.1735C45.0297 12.1747 45.0285 12.176 45.0266 12.1779C45.0253 12.1792 45.024 12.181 45.0228 12.1829L43.2758 13.9293C43.2752 13.9299 43.2745 13.9299 43.2745 13.9306C43.2745 13.9312 43.2739 13.9318 43.2733 13.9318L43.1473 14.0578L43.1599 14.0704C42.7302 14.6173 42.7327 15.3852 43.1662 15.9295L43.1542 15.9415L43.2739 16.0612V16.0618H43.2745L44.2233 17.01L44.2403 16.993C44.2542 17.0075 44.2636 17.0245 44.2781 17.039C52.2583 25.0198 52.2835 37.989 44.355 46.0026L44.3443 45.9919L43.3968 46.9394C43.3961 46.94 43.3955 46.94 43.3949 46.9407C43.3942 46.9413 43.3942 46.9419 43.3936 46.9426L43.2752 47.061L43.2871 47.073C42.8222 47.657 42.8493 48.5005 43.376 49.0486L43.3741 49.0505L43.3936 49.0701C43.3942 49.0707 43.3942 49.0713 43.3949 49.072C43.3955 49.0726 43.3961 49.0726 43.3968 49.0732L44.2762 49.9527C44.2769 49.9533 44.2775 49.954 44.2775 49.9546C44.2775 49.9552 44.2788 49.9552 44.2794 49.9558L45.1463 50.8227C45.1469 50.8234 45.1475 50.824 45.1475 50.8246C45.1482 50.8252 45.1488 50.8252 45.1494 50.8259L45.2742 50.9506L45.2868 50.938C45.8336 51.3677 46.6022 51.3658 47.1465 50.9324L47.1585 50.9443L48.1457 49.9565C48.147 49.9552 48.1476 49.9546 48.1488 49.954C48.1526 49.9502 48.1564 49.9464 48.1602 49.942L48.2276 49.8746L48.2257 49.8739Z" fill="#ADADAD"/>
<path d="M40.9015 42.5502C46.9249 36.4398 46.9009 26.5703 40.824 20.4939C40.8095 20.4794 40.7925 20.4706 40.778 20.4561L40.7824 20.4517L39.7133 19.382L39.7007 19.3946C39.1167 18.9303 38.2731 18.9567 37.725 19.4834L37.7231 19.4815L37.7048 19.4998C37.7036 19.501 37.7029 19.5017 37.7017 19.5023C37.7004 19.5029 37.6998 19.5042 37.6992 19.5054L35.9515 21.2531C35.9509 21.2537 35.9497 21.2543 35.949 21.255C35.9484 21.2556 35.9478 21.2562 35.9471 21.2575L35.8224 21.3822L35.835 21.3948C35.4053 21.941 35.4072 22.7096 35.8407 23.2539L35.8287 23.2659L35.9478 23.385C35.9484 23.3856 35.9484 23.3856 35.949 23.3862C35.9497 23.3869 35.9497 23.3869 35.9503 23.3875L36.8978 24.3357L36.9148 24.3186C36.9287 24.3331 36.9381 24.3501 36.9526 24.3646C40.8952 28.3065 40.9172 34.701 37.0276 38.6763L37.0194 38.6682L36.0712 39.6163C36.0706 39.6163 36.0706 39.6169 36.07 39.6169C36.0694 39.6169 36.0694 39.6176 36.0694 39.6182L35.9503 39.7373L35.9623 39.7492C35.4979 40.3333 35.5244 41.1762 36.0511 41.7243L36.0486 41.7268L37.8226 43.5003L37.9493 43.6269L37.9619 43.6143C38.5087 44.0433 39.2767 44.0414 39.821 43.6086L39.8336 43.6212L40.824 42.6309L40.9027 42.5521L40.9015 42.5502Z" fill="#ADADAD"/>
<path d="M34.2121 28.791C32.7133 27.2916 30.2866 27.2935 28.7903 28.7903C27.2916 30.2891 27.2916 32.714 28.7903 34.2115C30.2872 35.709 32.7133 35.7103 34.2115 34.2109C35.7084 32.7146 35.7084 30.2879 34.2121 28.791Z" fill="#ADADAD"/>
<path d="M27.1585 39.746L27.1705 39.7341L27.052 39.6156C27.0514 39.615 27.0508 39.6144 27.0501 39.6131C27.0495 39.6125 27.0489 39.6118 27.0483 39.6112L26.1014 38.6637L26.0844 38.6807C26.0705 38.6662 26.061 38.6492 26.0472 38.6353C22.1046 34.6928 22.0826 28.2983 25.9722 24.323L25.9804 24.3312L27.0495 23.2627L27.0369 23.2501C27.5019 22.6661 27.4748 21.8225 26.9481 21.2751L26.9506 21.2725L25.0493 19.3718L25.0367 19.3844C24.4898 18.9548 23.7225 18.9567 23.1775 19.3901L23.1656 19.3781L23.0452 19.4985L22.1752 20.3685L22.0965 20.4472L22.0983 20.4491C16.0743 26.5595 16.0989 36.4291 22.1758 42.5061C22.1897 42.5199 22.2067 42.5294 22.2212 42.5432L22.2174 42.547L23.2865 43.6168L23.2991 43.6042C23.8825 44.0685 24.7254 44.0414 25.2742 43.5153L25.2761 43.5172L25.2943 43.4989C25.2956 43.4977 25.2969 43.4971 25.2975 43.4964C25.2981 43.4958 25.2994 43.4939 25.3 43.4933L27.0483 41.745C27.0489 41.7444 27.0495 41.7444 27.0501 41.7438C27.0508 41.7431 27.0508 41.7425 27.0514 41.7425L27.1768 41.6171L27.1642 41.6045C27.5938 41.0583 27.592 40.2904 27.1585 39.746Z" fill="#ADADAD"/>
<path d="M19.8343 47.0704L19.8462 47.0585L19.7265 46.9388C19.7265 46.9388 19.7265 46.9381 19.7259 46.9381C19.7259 46.9381 19.7253 46.9381 19.7253 46.9375L18.7765 45.9894L18.7595 46.0064C18.7456 45.9919 18.7362 45.9749 18.7223 45.9604C10.7415 37.9789 10.7175 25.011 18.6461 16.9974L18.6562 17.0075L19.6037 16.0599C19.6043 16.0593 19.6049 16.0593 19.6056 16.0587C19.6062 16.0581 19.6062 16.0574 19.6068 16.0568L19.7253 15.9384L19.7133 15.9264C20.1782 15.3424 20.1518 14.4988 19.6245 13.9507L19.627 13.9482L18.7236 13.0448L18.7229 13.0441C18.7223 13.0435 18.7223 13.0435 18.7223 13.0435L17.7263 12.0475L17.7137 12.0607C17.1675 11.631 16.3995 11.6329 15.8545 12.0664L15.8419 12.0538L14.7735 13.1229L14.7753 13.1248C4.71173 23.2741 4.73567 39.7164 14.8516 49.8317C14.8661 49.8462 14.8831 49.855 14.8976 49.8689L14.8932 49.8733L15.9623 50.943L15.9749 50.9304C16.5589 51.3948 17.4025 51.3677 17.9506 50.841L17.9524 50.8429L17.9732 50.8221L19.7234 49.0713C19.7246 49.0701 19.7259 49.0694 19.7265 49.0688C19.7278 49.0675 19.7284 49.0663 19.729 49.0656L19.8525 48.9422L19.8399 48.9296C20.2696 48.3834 20.2677 47.6154 19.8343 47.0704Z" fill="#ADADAD"/>
</svg>
