<svg width="76" height="73" viewBox="0 0 76 73" fill="none" xmlns="http://www.w3.org/2000/svg">
<path d="M46.0559 20.002L37.9999 12.264L29.9439 20.002L27.8159 17.958L37.9999 8.17599L48.1839 17.958L46.0559 20.002Z" fill="#BFBFBF"/>
<path d="M36.48 10.22H39.52V40.88H36.48V10.22Z" fill="#BFBFBF"/>
<path d="M53.2 58.4H22.8C20.216 58.4 18.24 56.502 18.24 54.02V27.74C18.24 25.258 20.216 23.36 22.8 23.36H33.44V26.28H22.8C21.888 26.28 21.28 26.864 21.28 27.74V54.02C21.28 54.896 21.888 55.48 22.8 55.48H53.2C54.112 55.48 54.72 54.896 54.72 54.02V27.74C54.72 26.864 54.112 26.28 53.2 26.28H42.56V23.36H53.2C55.784 23.36 57.76 25.258 57.76 27.74V54.02C57.76 56.502 55.784 58.4 53.2 58.4Z" fill="#BFBFBF"/>
</svg>
