<svg width="49" height="9" viewBox="0 0 49 9" fill="none" xmlns="http://www.w3.org/2000/svg">
<path d="M8.125 4.0625C8.125 5.13994 7.69699 6.17325 6.93512 6.93512C6.17325 7.69699 5.13994 8.125 4.0625 8.125C2.98506 8.125 1.95175 7.69699 1.18988 6.93512C0.428012 6.17325 0 5.13994 0 4.0625C0 2.98506 0.428012 1.95175 1.18988 1.18988C1.95175 0.428013 2.98506 0 4.0625 0C5.13994 0 6.17325 0.428013 6.93512 1.18988C7.69699 1.95175 8.125 2.98506 8.125 4.0625ZM28.4375 4.0625C28.4375 5.13994 28.0095 6.17325 27.2476 6.93512C26.4858 7.69699 25.4524 8.125 24.375 8.125C23.2976 8.125 22.2642 7.69699 21.5024 6.93512C20.7405 6.17325 20.3125 5.13994 20.3125 4.0625C20.3125 2.98506 20.7405 1.95175 21.5024 1.18988C22.2642 0.428013 23.2976 0 24.375 0C25.4524 0 26.4858 0.428013 27.2476 1.18988C28.0095 1.95175 28.4375 2.98506 28.4375 4.0625ZM48.75 4.0625C48.75 5.13994 48.322 6.17325 47.5601 6.93512C46.7983 7.69699 45.7649 8.125 44.6875 8.125C43.6101 8.125 42.5767 7.69699 41.8149 6.93512C41.053 6.17325 40.625 5.13994 40.625 4.0625C40.625 2.98506 41.053 1.95175 41.8149 1.18988C42.5767 0.428013 43.6101 0 44.6875 0C45.7649 0 46.7983 0.428013 47.5601 1.18988C48.322 1.95175 48.75 2.98506 48.75 4.0625Z" fill="white"/>
</svg>
