<svg width="100" height="100" viewBox="0 0 100 100" fill="none" xmlns="http://www.w3.org/2000/svg">
<path d="M0 50C0 77.6142 22.3858 100 50 100C77.6142 100 100 77.6142 100 50C100 22.3858 77.6142 0 50 0C22.3858 0 0 22.3858 0 50Z" fill="#F4F2F2"/>
<path d="M29.4645 76.6161C26.4061 76.6167 23.4163 75.7103 20.8731 74.0115C18.3299 72.3127 16.3477 69.8978 15.1772 67.0723C14.0067 64.2467 13.7004 61.1375 14.2972 58.1379C14.894 55.1383 16.367 52.3831 18.5298 50.2208L34.4839 34.2698C37.3837 31.3698 41.3167 29.7405 45.4178 29.7404C49.5189 29.7402 53.4521 31.3693 56.3521 34.2691C59.2522 37.1689 60.8815 41.1019 60.8816 45.203C60.8818 49.3041 59.2527 53.2373 56.3529 56.1373C55.3995 57.0913 53.8535 57.0923 52.8988 56.1396L51.9475 55.1902C50.9841 54.2288 50.9831 52.6681 51.9454 51.7055C53.6663 49.9759 54.6314 47.6346 54.6291 45.1947C54.6268 42.7548 53.6574 40.4153 51.9332 38.6889C50.1777 37.0135 47.8443 36.0788 45.4176 36.0788C42.9909 36.0788 40.6575 37.0135 38.902 38.6889L22.9498 54.6389C22.0941 55.4943 21.4153 56.5098 20.9521 57.6276C20.489 58.7453 20.2506 59.9434 20.2506 61.1533C20.2506 62.3632 20.489 63.5612 20.9521 64.679C21.4153 65.7968 22.0941 66.8123 22.9498 67.6677C24.7053 69.343 27.0388 70.2778 29.4654 70.2778C30.8494 70.2778 32.203 69.9737 33.4364 69.4017C34.9966 68.6781 36.952 68.6388 38.168 69.8549C39.402 71.0891 39.4175 73.1227 37.9599 74.0827C37.1491 74.6167 36.2875 75.074 35.3861 75.4472C33.5089 76.2244 31.4962 76.6217 29.4645 76.6161Z" fill="black"/>
<path d="M54.4645 70.3662C51.4061 70.3668 48.4162 69.4604 45.8731 67.7616C43.3299 66.0628 41.3477 63.6479 40.1772 60.8223C39.0067 57.9968 38.7004 54.8876 39.2972 51.888C39.894 48.8884 41.3669 46.1332 43.5298 43.9709L45.2567 42.244L49.6764 46.6646L47.9495 48.3906C47.094 49.2459 46.4153 50.2614 45.9523 51.3791C45.4893 52.4968 45.251 53.6947 45.251 54.9045C45.251 56.1142 45.4893 57.3122 45.9523 58.4298C46.4153 59.5475 47.094 60.563 47.9495 61.4184C49.705 63.0937 52.0384 64.0285 54.4651 64.0285C56.8918 64.0285 59.2252 63.0937 60.9808 61.4184C61.7933 60.6059 75.7598 46.6393 76.9348 45.4668C78.6598 43.738 79.6286 41.3954 79.6286 38.9532C79.6286 36.511 78.6598 34.1685 76.9348 32.4396C75.1793 30.7642 72.8459 29.8295 70.4192 29.8295C67.9925 29.8295 65.6591 30.7642 63.9036 32.4396L59.4839 28.0193C62.3847 25.1237 66.3164 23.4982 70.4151 23.5C74.5138 23.5018 78.4441 25.1308 81.3424 28.0289C84.2407 30.9271 85.8698 34.8573 85.8718 38.956C85.8737 43.0547 84.2484 46.9865 81.3529 49.8874C80.1764 51.0624 66.2154 65.0212 65.4036 65.8359C63.9702 67.2766 62.2653 68.4188 60.3877 69.1964C58.51 69.974 56.4968 70.3716 54.4645 70.3662Z" fill="black"/>
</svg>
