<svg width="100" height="100" viewBox="0 0 100 100" fill="none" xmlns="http://www.w3.org/2000/svg">
<circle cx="50" cy="50" r="50" fill="#3D64F0"/>
<path d="M70.8126 16.7374C71.3482 16.8546 71.7998 17.2394 71.7666 17.9758C71.5826 21.6575 71.3818 25.3556 70.4613 28.9368C70.5785 29.9408 69.9593 31.1121 68.8045 30.9617C60.5712 29.874 57.5759 37.2874 56.5047 45.6376C60.4204 45.872 64.3028 46.1732 68.0849 46.5076C68.7877 46.5744 69.1725 47.06 69.2561 47.5952C69.457 47.7292 69.641 47.93 69.7246 48.2312C70.3938 50.4069 70.4106 52.8497 70.461 55.1258C70.4946 56.9162 70.7122 58.9411 69.507 60.3635C69.6578 61.2003 69.2058 62.1707 68.0845 62.2043C64.0685 62.2544 60.002 62.3215 55.9187 62.3551C55.9187 62.7567 55.9187 63.1583 55.9019 63.5264C55.6175 74.4538 56.0859 85.3476 55.9687 96.2583C55.9519 97.1119 55.2659 97.4295 54.6467 97.3127C54.5631 97.3627 54.4795 97.4299 54.3791 97.4631C52.3206 98.1159 49.9946 98.0155 47.8529 98.0823C45.7277 98.1323 43.636 98.1827 41.5272 97.8147C41.0084 97.9819 40.3724 97.8147 40.2556 97.1287C38.3647 86.3184 38.6827 74.9058 38.7327 63.9616C38.7327 63.2755 38.7327 62.5895 38.7327 61.9031C35.4026 61.6855 32.0894 61.3507 28.8261 60.8823C28.3241 60.7987 28.0729 60.4639 28.0397 60.0791C26.8349 59.2759 27.1193 57.1674 27.1025 55.8454C27.0521 53.0005 26.7345 49.704 27.5541 46.9596C27.6377 46.6752 27.8385 46.4912 28.0897 46.3572C28.2401 46.19 28.4577 46.0728 28.7589 46.0392C32.089 45.6376 35.5195 45.4032 38.9835 45.286C39.1508 42.1399 39.4355 38.9938 39.9208 35.915C42.2132 21.2223 54.8143 12.3029 69.691 15.7333C70.3106 15.8838 70.6618 16.2854 70.8126 16.7374Z" fill="white"/>
</svg>
