<svg width="65" height="65" viewBox="0 0 65 65" fill="none" xmlns="http://www.w3.org/2000/svg">
<path d="M62.5623 26.7673L62.5626 26.7675C62.6797 26.8671 62.7665 26.9539 62.8306 27.0264C62.7595 27.0336 62.6742 27.0383 62.5731 27.0383H58.6778H56.6778V29.0383V60.8792C56.6778 62.134 55.722 63 54.7413 63H42.6365C41.5934 63 40.6016 62.0483 40.6016 60.8792V47.8218C40.6016 45.7987 39.1108 43.6837 36.7317 43.6837H28.4651C26.2155 43.6837 24.3984 45.6627 24.3984 47.8218V60.8792C24.3984 62.2215 23.4765 63 22.5603 63H10.2587C9.27792 63 8.32224 62.1342 8.32224 60.8792V29.0383V27.0383H6.32224H2.42687C2.32577 27.0383 2.24045 27.0336 2.16927 27.0264C2.23341 26.9538 2.3203 26.8669 2.43754 26.7672L2.43789 26.7669L30.8854 2.55462C30.8855 2.55455 30.8856 2.55448 30.8856 2.55442C31.2818 2.21745 31.845 2 32.4931 2C33.1445 2 33.713 2.21906 34.1144 2.56033C34.1144 2.56041 34.1145 2.56048 34.1146 2.56055L44.9817 11.8074L48.2778 14.6121V10.2842V7.25583C48.2778 7.1585 48.3143 7.0862 48.357 7.04165C48.3983 6.99849 48.4286 6.99538 48.4428 6.99538H53.5603C53.5746 6.99538 53.6048 6.99849 53.6461 7.04165C53.6888 7.0862 53.7254 7.1585 53.7254 7.25583V18.3236V19.2478L54.4293 19.8468L62.5623 26.7673ZM63.0045 27.2831C63.0044 27.2828 63.0043 27.2825 63.0042 27.2821L63.0045 27.2831ZM63.1427 26.956C63.1437 26.9553 63.1442 26.955 63.1443 26.955L63.1427 26.956ZM1.99554 27.2831C1.99472 27.286 1.99461 27.2856 1.99581 27.2821L1.99554 27.2831Z" stroke="#A2A2A2" stroke-width="4"/>
</svg>
