<svg width="100" height="100" viewBox="0 0 100 100" fill="none" xmlns="http://www.w3.org/2000/svg">
<circle cx="50" cy="50" r="50" fill="#3ADE00"/>
<path d="M90 27.9844V71.0156C90 81.5001 81.5001 90 71.0156 90H27.9844C17.4999 90 9 81.5001 9 71.0156V27.9844C9 17.4999 17.4999 9 27.9844 9H71.0156C81.5001 9 90 17.4999 90 27.9844Z" fill="url(#paint0_linear_104_9)"/>
<path d="M49.5152 30.5156C45.0703 30.5156 40.9583 31.6648 37.5297 33.6455C36.9488 33.9809 36.378 34.3176 35.8401 34.6985C35.3212 35.0681 34.8453 35.4718 34.3695 35.8806C34.3517 35.8945 34.3239 35.8971 34.3062 35.9123C30.4131 39.2498 27.9844 43.849 27.9844 48.9406C27.9844 53.9589 30.3562 58.4847 34.1505 61.8082C34.1682 61.9437 34.1809 62.0905 34.1809 62.1917C34.1809 65.1305 31.9205 67.5251 29.0488 67.5567C30.4959 68.1631 32.0486 68.4774 33.6177 68.4818C36.3894 68.4818 38.8865 67.4516 40.9102 65.8316C43.6623 66.8636 46.5772 67.3935 49.5165 67.396C61.3981 67.396 71.0169 59.1251 71.0169 48.9393C71.0169 38.7536 61.3969 30.5156 49.5152 30.5156Z" fill="url(#paint1_linear_104_9)"/>
<defs>
<linearGradient id="paint0_linear_104_9" x1="49.5" y1="9" x2="49.5" y2="90" gradientUnits="userSpaceOnUse">
<stop stop-color="#00EA66"/>
<stop offset="1" stop-color="#00D50F"/>
</linearGradient>
<linearGradient id="paint1_linear_104_9" x1="49.4675" y1="68.0907" x2="49.4675" y2="47.0047" gradientUnits="userSpaceOnUse">
<stop stop-color="#E5F5D9"/>
<stop offset="1" stop-color="white"/>
</linearGradient>
</defs>
</svg>
