<svg width="47" height="47" viewBox="0 0 47 47" fill="none" xmlns="http://www.w3.org/2000/svg">
<path d="M47 4.64809C47 3.55216 46.0963 2.6485 45.0004 2.6485H15.9967C14.9008 2.6485 13.9971 3.55216 13.9971 4.64809V30.787C12.5744 30.0083 10.8535 29.5469 8.99816 29.5469C3.99918 29.5469 0 32.8443 0 36.9492C0 41.0541 3.99918 44.3515 8.99816 44.3515C13.9971 44.3515 17.9963 41.0541 17.9963 36.9492V6.64768H43.0008V30.787C41.578 30.0083 39.8572 29.5469 38.0018 29.5469C33.0029 29.5469 29.0037 32.8443 29.0037 36.9492C29.0037 41.0541 33.0029 44.3515 38.0018 44.3515C43.0008 44.3515 47 41.0541 47 36.9492V4.64809ZM8.99816 40.5542C6.20065 40.5542 3.89343 38.9584 3.89343 37.0549C3.89343 35.1515 6.19104 33.5556 8.99816 33.5556C11.7957 33.5556 14.1029 35.1515 14.1029 37.0549C14.0933 38.9488 11.7957 40.5542 8.99816 40.5542ZM37.9922 40.5542C35.1947 40.5542 32.8875 38.9584 32.8875 37.0549C32.8875 35.1515 35.1851 33.5556 37.9922 33.5556C40.6936 33.5556 43.097 35.1515 43.097 37.0549C43.097 38.9488 40.7993 40.5542 37.9922 40.5542Z" fill="#A4A4A4"/>
</svg>
