<svg width="52" height="54" viewBox="0 0 52 54" fill="none" xmlns="http://www.w3.org/2000/svg">
<path d="M45.5 47.25H6.5C5.63832 47.2491 4.8122 46.8932 4.2029 46.2604C3.5936 45.6277 3.2509 44.7698 3.25 43.875V35.4375H6.5V43.875H45.5V35.4375H48.75V43.875C48.7491 44.7698 48.4064 45.6277 47.7971 46.2604C47.1878 46.8932 46.3617 47.2491 45.5 47.25Z" fill="#ACACAC"/>
<path d="M40.625 35.4375H11.375V38.8125H40.625V35.4375Z" fill="#ACACAC"/>
<path d="M40.625 27H11.375V30.375H40.625V27Z" fill="#ACACAC"/>
<path d="M40.625 18.5625H11.375V21.9375H40.625V18.5625Z" fill="#ACACAC"/>
<path d="M40.625 10.125H11.375V13.5H40.625V10.125Z" fill="#ACACAC"/>
<line x1="8.5" y1="1" x2="8.5" y2="14" stroke="#999999" stroke-width="3"/>
<line x1="8.5" y1="1" x2="8.5" y2="14" stroke="#999999" stroke-width="3"/>
<line x1="15" y1="7.5" x2="2" y2="7.5" stroke="#999999" stroke-width="3"/>
<line x1="15" y1="7.5" x2="2" y2="7.5" stroke="#999999" stroke-width="3"/>
</svg>
