<svg width="62" height="62" viewBox="0 0 62 62" fill="none" xmlns="http://www.w3.org/2000/svg">
<path d="M39.8931 42.625L29.0625 31.7944V13.5625H32.9375V30.1863L42.625 39.8931L39.8931 42.625Z" fill="white"/>
<path d="M31 3.875C27.3865 3.87551 23.8098 4.60113 20.4818 6.00889C17.1537 7.41665 14.142 9.47791 11.625 12.0706V3.875H7.75V19.375H23.25V15.5H13.7175C17.3523 11.4609 22.287 8.82246 27.6646 8.04296C33.0422 7.26346 38.523 8.39212 43.1551 11.2329C47.7872 14.0737 51.2779 18.4472 53.0211 23.5938C54.7643 28.7404 54.6497 34.335 52.6974 39.406C50.7451 44.477 47.0783 48.704 42.3339 51.3528C37.5894 54.0017 32.0671 54.9052 26.7259 53.9062C21.3847 52.9073 16.562 50.0692 13.0956 45.8847C9.62908 41.7003 7.73773 36.4338 7.75 31H3.875C3.875 36.3648 5.46585 41.6092 8.44639 46.0698C11.4269 50.5305 15.6633 54.0072 20.6197 56.0602C25.5762 58.1133 31.0301 58.6504 36.2918 57.6038C41.5536 56.5572 46.3868 53.9738 50.1803 50.1803C53.9738 46.3868 56.5572 41.5536 57.6038 36.2918C58.6504 31.0301 58.1133 25.5762 56.0602 20.6197C54.0072 15.6633 50.5305 11.4269 46.0698 8.44639C41.6092 5.46585 36.3648 3.875 31 3.875Z" fill="white"/>
</svg>
