<svg width="65" height="65" viewBox="0 0 65 65" fill="none" xmlns="http://www.w3.org/2000/svg">
<path d="M63.1193 61.427L63.1197 61.4274C63.6268 61.9349 63.6268 62.6123 63.1197 63.1199C62.6132 63.6267 61.9385 63.6267 61.432 63.1199L42.716 44.3884L41.7751 43.4468L40.7283 44.2691C36.5861 47.5228 31.3682 49.4681 25.6963 49.4681C12.339 49.4681 1.5 38.7021 1.5 25.4907C1.5 12.2803 12.3647 1.5 25.7229 1.5C39.0802 1.5 49.9192 12.266 49.9192 25.4774C49.9192 31.2698 47.8414 36.573 44.3789 40.7289L43.5028 41.7804L44.4698 42.7489L63.1193 61.427ZM25.6963 3.97944C13.7345 3.97944 3.96163 13.6072 3.96163 25.4907C3.96163 37.3603 13.7338 47.002 25.6963 47.002C37.6581 47.002 47.4309 37.3743 47.4309 25.4907C47.4309 13.6072 37.6581 3.97944 25.6963 3.97944Z" fill="black" stroke="#A1A1A1" stroke-width="3"/>
</svg>
