<svg width="53" height="58" viewBox="0 0 53 58" fill="none" xmlns="http://www.w3.org/2000/svg">
<path fill-rule="evenodd" clip-rule="evenodd" d="M26.577 21.8947C30.5697 21.8947 33.8055 25.0753 33.8055 29C33.8055 32.9246 30.5697 36.1052 26.577 36.1052C22.5842 36.1052 19.3484 32.9246 19.3484 29C19.3484 25.0753 22.5842 21.8947 26.577 21.8947Z" stroke="white" stroke-width="3.5" stroke-linecap="round" stroke-linejoin="round"/>
<path fill-rule="evenodd" clip-rule="evenodd" d="M50.194 15.5007C48.2177 12.1122 43.8421 10.9527 40.4225 12.9095C37.4481 14.6079 33.7306 12.4828 33.7306 9.08304C33.7306 5.17233 30.5263 2 26.5764 2C22.6264 2 19.4221 5.17233 19.4221 9.08304C19.4221 12.4828 15.7046 14.6079 12.7329 12.9095C9.31032 10.9527 4.93498 12.1122 2.95859 15.5007C0.984998 18.8892 2.15611 23.221 5.57866 25.1748C8.55037 26.8761 8.55037 31.1239 5.57866 32.8252C2.15611 34.7817 0.984998 39.1136 2.95859 42.4994C4.93498 45.8878 9.31032 47.0474 12.73 45.0934H12.7329C15.7046 43.3921 19.4221 45.5172 19.4221 48.9169C19.4221 52.8276 22.6264 56 26.5764 56C30.5263 56 33.7306 52.8276 33.7306 48.9169C33.7306 45.5172 37.4481 43.3921 40.4225 45.0934C43.8421 47.0474 48.2177 45.8878 50.194 42.4994C52.1703 39.1136 50.9964 34.7817 47.5767 32.8252H47.5738C44.6023 31.1239 44.6023 26.8761 47.5767 25.1748C50.9964 23.221 52.1703 18.8892 50.194 15.5007Z" stroke="white" stroke-width="3.5" stroke-linecap="round" stroke-linejoin="round"/>
</svg>
