<svg width="100" height="100" viewBox="0 0 100 100" fill="none" xmlns="http://www.w3.org/2000/svg">
<path d="M50 100C77.6142 100 100 77.6142 100 50C100 22.3858 77.6142 0 50 0C22.3858 0 0 22.3858 0 50C0 77.6142 22.3858 100 50 100Z" fill="#55ACEE"/>
<path d="M80.6267 35.9336C78.484 36.8837 76.1791 37.5263 73.7619 37.8133C76.2299 36.3347 78.1239 33.995 79.0179 31.2026C76.7086 32.5725 74.1496 33.5663 71.4285 34.102C69.2484 31.7801 66.1422 30.3291 62.7027 30.3291C56.1035 30.3291 50.7513 35.6813 50.7513 42.2805C50.7513 43.2173 50.8574 44.1291 51.0624 45.0043C41.1298 44.5061 32.3228 39.7483 26.4278 32.5155C25.3992 34.2802 24.8092 36.3347 24.8092 38.5246C24.8092 42.67 26.9207 46.3297 30.1258 48.4724C28.1676 48.4109 26.3235 47.8734 24.7129 46.9759C24.7121 47.0267 24.7121 47.0775 24.7121 47.1274C24.7121 52.9181 28.8334 57.7481 34.2997 58.8453C33.2979 59.1198 32.24 59.2651 31.1517 59.2651C30.3798 59.2651 29.632 59.1911 28.9029 59.052C30.4235 63.7991 34.8363 67.2547 40.0673 67.3518C35.9763 70.5578 30.8237 72.4679 25.2228 72.4679C24.2602 72.4679 23.3065 72.4117 22.3733 72.3003C27.6596 75.6926 33.9432 77.6704 40.6921 77.6704C62.6751 77.6704 74.6969 59.4594 74.6969 43.6647C74.6969 43.1469 74.6853 42.6308 74.6621 42.1192C76.9991 40.4346 79.025 38.3303 80.6267 35.9336Z" fill="#F1F2F2"/>
</svg>
