<svg width="100" height="100" viewBox="0 0 100 100" fill="none" xmlns="http://www.w3.org/2000/svg">
<circle cx="50" cy="50" r="50" fill="#E7F72F"/>
<path d="M10 69.9064V69.9099C10.0485 71.6636 10.0635 73.4274 10.367 75.1704C10.6887 77.0143 11.1485 78.8123 12.0257 80.4859C13.2116 82.7511 14.8403 84.6639 16.8962 86.2265C18.3723 87.3485 19.9848 88.2391 21.7698 88.801C24.3726 89.6192 27.0578 89.9328 29.7822 89.9481C31.482 89.9586 33.1806 90 34.881 89.9931C47.2296 89.9424 59.5784 90.08 71.9272 89.9188C73.5659 89.8972 75.1778 89.7024 76.786 89.4158C79.8685 88.8659 82.5927 87.5841 84.9235 85.5576C87.6398 83.1965 89.4726 80.3069 90.2998 76.8193C90.8412 74.5397 90.9767 72.227 90.9998 69.9061V69.4431C90.9998 69.2635 90.9297 30.0081 90.9233 29.4893C90.9052 28.064 90.7974 26.6494 90.5232 25.2469C90.1897 23.5379 89.7186 21.8727 88.8789 20.3265C87.9922 18.6931 86.8816 17.2243 85.5079 15.9408C83.4036 13.9744 80.9753 12.5837 78.1484 11.8481C75.595 11.1839 72.9902 11.0368 70.3662 11.0391C70.362 11.0385 70.3521 11.0126 70.3514 11H30.6358C30.635 11.0132 30.6345 11.0264 30.6336 11.0391C29.1444 11.0657 27.6531 11.0548 26.1715 11.2338C24.5484 11.4304 22.9409 11.7266 21.4047 12.2795C18.9849 13.1517 16.8825 14.5103 15.0867 16.324C13.052 18.3788 11.6179 20.7553 10.8569 23.5226C10.178 25.9916 10.0302 28.5097 10.0266 31.0457" fill="#FFFC00"/>
<path d="M50.8674 77.6535C50.6992 77.6535 50.5387 77.6475 50.4166 77.6418C50.3198 77.65 50.2197 77.6535 50.1196 77.6535C46.5854 77.6535 44.2223 76.0252 42.1369 74.5875C40.6422 73.5585 39.2326 72.5871 37.5812 72.3194C36.7702 72.1883 35.9634 72.1218 35.1838 72.1218C33.7792 72.1218 32.6692 72.3341 31.8588 72.4886C31.3601 72.5833 30.9301 72.6648 30.5977 72.6648C30.2496 72.6648 29.8267 72.5896 29.6504 72.003C29.5107 71.5404 29.4105 71.0921 29.3138 70.6604C29.0719 69.5817 28.8964 68.9233 28.4819 68.8609C24.0493 68.1943 21.4302 67.2125 20.9085 66.0234C20.8539 65.8985 20.8233 65.7727 20.8166 65.6484C20.7962 65.294 21.053 64.9831 21.4115 64.9252C24.9317 64.3603 28.0617 62.5471 30.7151 59.5342C32.7705 57.2016 33.7799 54.973 33.8882 54.7269C33.893 54.7159 33.8985 54.7042 33.9041 54.6936C34.4156 53.6823 34.5174 52.8084 34.2075 52.0969C33.6364 50.7842 31.7448 50.1994 30.4933 49.8124C30.182 49.7164 29.8876 49.6255 29.6531 49.5348C28.5437 49.1078 26.7192 48.2054 26.9622 46.96C27.1393 46.0519 28.3718 45.4194 29.368 45.4194C29.6446 45.4194 29.8897 45.4667 30.096 45.5611C31.2216 46.0751 32.2343 46.3356 33.1052 46.3356C34.1883 46.3356 34.7114 45.9337 34.8379 45.8195C34.8067 45.2564 34.7686 44.6611 34.7317 44.098C34.7317 44.0974 34.731 44.0907 34.731 44.0907C34.4767 40.1493 34.1596 35.2444 35.447 32.4317C39.3002 24.0123 47.4717 23.3575 49.8836 23.3575C49.9479 23.3575 50.9349 23.348 50.9349 23.348C50.9794 23.3473 51.0278 23.3466 51.0779 23.3466C53.4964 23.3466 61.6849 24.0021 65.5404 32.4267C66.8278 35.2412 66.5104 40.1503 66.2554 44.0957L66.2434 44.2845C66.2085 44.8203 66.1762 45.3273 66.1489 45.8188C66.268 45.9257 66.7467 46.2941 67.7206 46.3314C68.5509 46.3004 69.505 46.0411 70.5556 45.5617C70.8804 45.4131 71.24 45.3823 71.4842 45.3823C71.8532 45.3823 72.2288 45.4523 72.5418 45.5795L72.5584 45.5858C73.45 45.8942 74.0339 46.5106 74.0465 47.1581C74.0577 47.7616 73.5974 48.6638 71.3336 49.5351C71.1017 49.6246 70.8059 49.7161 70.4934 49.8127C69.2408 50.2001 67.3508 50.7847 66.7796 52.0966C66.4693 52.8081 66.5714 53.6817 67.083 54.6927C67.0887 54.7037 67.0936 54.7149 67.0991 54.7266C67.2566 55.0864 71.0693 63.5587 79.5758 64.9245C79.9342 64.9826 80.1914 65.2938 80.1709 65.6476C80.1633 65.7747 80.1319 65.9019 80.0767 66.026C79.5587 67.2085 76.9398 68.189 72.5058 68.8564C72.0897 68.919 71.9144 69.5745 71.6746 70.6475C71.5754 71.0907 71.4744 71.5252 71.3366 71.9817C71.2076 72.4111 70.9206 72.6209 70.4597 72.6209H70.3902C70.0902 72.6209 69.665 72.5678 69.1288 72.4655C68.1916 72.2878 67.1405 72.1223 65.8038 72.1223C65.0244 72.1223 64.2178 72.1889 63.4058 72.3199C61.7561 72.5876 60.3466 73.5574 58.8546 74.5853C56.7652 76.0251 54.4013 77.6535 50.8674 77.6535Z" fill="white"/>
<path d="M51.0776 24.0404C53.3546 24.0404 61.1951 24.6364 64.89 32.7093C66.1066 35.3676 65.7948 40.183 65.5446 44.0512C65.5056 44.6651 65.4668 45.2601 65.4353 45.8282L65.4221 46.0725L65.5893 46.2544C65.6569 46.3274 66.2894 46.9715 67.696 47.0245L67.7187 47.0257L67.7423 47.0253C68.6723 46.9907 69.7198 46.7092 70.8573 46.1899C71.0249 46.1134 71.248 46.0761 71.4839 46.0761C71.7528 46.0761 72.0386 46.1254 72.2742 46.2221L72.3098 46.2359C72.9063 46.4396 73.328 46.8237 73.3344 47.1713C73.3379 47.3678 73.1872 48.0756 71.0727 48.8896C70.866 48.9691 70.594 49.0537 70.2786 49.1506C68.9026 49.5764 66.8237 50.219 66.124 51.8258C65.73 52.7309 65.8379 53.799 66.4444 55C66.6939 55.5675 70.6217 64.1898 79.4601 65.6091C79.4584 65.65 79.4477 65.6946 79.424 65.7473C79.2743 66.0911 78.3221 67.2791 72.3969 68.1701C71.4698 68.3086 71.2426 69.3214 70.9793 70.4988C70.8841 70.9203 70.7874 71.3459 70.6545 71.7854C70.6138 71.9181 70.6063 71.9257 70.4602 71.9257C70.4401 71.9257 70.4165 71.9257 70.3906 71.9257C70.1279 71.9257 69.729 71.8726 69.2667 71.7841C68.4248 71.6243 67.2746 71.4283 65.8042 71.4283C64.9835 71.4283 64.1381 71.4978 63.2899 71.6358C61.4767 71.9297 60.0022 72.946 58.4406 74.0218C56.3434 75.466 54.1758 76.9604 50.8686 76.9604C50.7242 76.9604 50.5832 76.9557 50.4419 76.9488L50.4047 76.9472L50.3674 76.95C50.2863 76.9569 50.2045 76.9604 50.121 76.9604C46.8143 76.9604 44.6458 75.4665 42.5495 74.0218C40.9876 72.946 39.5123 71.9297 37.6994 71.6358C36.852 71.4983 36.0058 71.4283 35.1856 71.4283C33.7155 71.4283 32.5639 71.6475 31.7237 71.8076C31.2614 71.8957 30.8612 71.9713 30.5992 71.9713C30.3847 71.9713 30.3806 71.959 30.3352 71.8079C30.2023 71.3681 30.1051 70.9325 30.0104 70.5116C29.7464 69.3329 29.5191 68.3145 28.5924 68.1759C22.6678 67.2842 21.7154 66.0942 21.5652 65.7513C21.5417 65.6972 21.5311 65.6512 21.5288 65.6103C30.367 64.1922 34.2941 55.5697 34.5444 55C35.1519 53.7999 35.2597 52.7319 34.8644 51.8258C34.1648 50.2199 32.0862 49.5764 30.711 49.1514C30.3949 49.0539 30.1227 48.9691 29.9159 48.8896C28.1303 48.2021 27.581 47.5094 27.6626 47.0897C27.7573 46.6057 28.6183 46.1136 29.3696 46.1136C29.5385 46.1136 29.6866 46.1402 29.796 46.19C31.0163 46.7474 32.1303 47.03 33.1074 47.03C34.6433 47.03 35.3269 46.3336 35.4003 46.2541L35.5668 46.0726L35.5534 45.8296C35.5224 45.2618 35.4841 44.6669 35.4438 44.0543C35.1944 40.1851 34.8826 35.3729 36.0988 32.7145C39.7799 24.6713 47.5822 24.0513 49.8854 24.0513C49.9421 24.0513 50.9434 24.0413 50.9434 24.0413C50.9844 24.041 51.0299 24.0404 51.0776 24.0404ZM51.0776 22.653H51.075C51.0225 22.653 50.9732 22.653 50.9263 22.6536C50.552 22.6573 49.9368 22.6631 49.8815 22.6637C48.5322 22.6637 45.8325 22.8494 42.9326 24.0969C41.2746 24.8096 39.7832 25.7733 38.5001 26.9613C36.9703 28.3768 35.724 30.122 34.7966 32.1493C33.4383 35.1175 33.7607 40.1171 34.0197 44.1349L34.0206 44.1412C34.0484 44.5715 34.0775 45.0208 34.1041 45.4586C33.9049 45.5478 33.5818 45.6419 33.1056 45.6419C32.3395 45.6419 31.4284 45.4032 30.3984 44.9328C30.0953 44.7953 29.7494 44.7257 29.3677 44.7257C28.7545 44.7257 28.1081 44.9016 27.5473 45.2229C26.8418 45.6267 26.386 46.1973 26.2621 46.8299C26.1806 47.2483 26.1845 48.0754 27.1272 48.9142C27.6458 49.3759 28.4075 49.8018 29.3907 50.1805C29.6488 50.2795 29.955 50.3741 30.2793 50.4743C31.4047 50.8229 33.1081 51.3496 33.5523 52.3684C33.7774 52.885 33.6806 53.5647 33.2652 54.3863C33.2543 54.4087 33.2434 54.4307 33.2335 54.4537C33.1297 54.6899 32.1613 56.8277 30.1749 59.0823C29.0461 60.3644 27.8028 61.4358 26.4816 62.2679C24.8689 63.2836 23.1239 63.9477 21.2956 64.2412C20.5777 64.356 20.065 64.9794 20.105 65.6879C20.1173 65.892 20.1664 66.0956 20.2516 66.2925C20.2523 66.2938 20.253 66.295 20.2537 66.2961C20.544 66.9578 21.217 67.52 22.3113 68.0158C23.6485 68.6211 25.6483 69.1303 28.2547 69.5286C28.3864 69.7727 28.5231 70.3861 28.6178 70.8061C28.7169 71.2525 28.8202 71.7115 28.9675 72.1991C29.1264 72.7273 29.5386 73.3585 30.5976 73.3585C30.999 73.3585 31.4605 73.2704 31.995 73.1694C32.7777 73.0197 33.848 72.8156 35.1839 72.8156C35.9245 72.8156 36.6921 72.8791 37.4647 73.0042C38.9541 73.2458 40.238 74.1297 41.7235 75.1533C43.8979 76.6513 46.3591 78.3468 50.1195 78.3468C50.222 78.3468 50.3249 78.3435 50.4265 78.3366C50.5508 78.3423 50.7048 78.3468 50.8674 78.3468C54.6289 78.3468 57.0894 76.6506 59.2614 75.1539L59.2649 75.1509C60.7508 74.1285 62.0333 73.2458 63.5221 73.0042C64.2944 72.8793 65.0618 72.8156 65.8028 72.8156C67.079 72.8156 68.0895 72.9741 68.9917 73.1456C69.5805 73.2586 70.0381 73.3129 70.3892 73.3129L70.4235 73.3135H70.4591C71.2337 73.3135 71.8028 72.8992 72.02 72.1742C72.1643 71.6969 72.2673 71.2487 72.3689 70.7948C72.4574 70.4012 72.5988 69.7703 72.7305 69.5236C75.3387 69.1245 77.3377 68.6163 78.6751 68.0112C79.7668 67.5177 80.4391 66.9562 80.7311 66.2971C80.8187 66.0996 80.8699 65.8948 80.8814 65.6863C80.9225 64.9791 80.409 64.3545 79.6906 64.2397C71.5651 62.9345 67.9045 54.798 67.7532 54.4523C67.7434 54.4296 67.7324 54.407 67.7209 54.3851C67.3055 53.5632 67.2096 52.8842 67.4348 52.3667C67.8781 51.3488 69.5804 50.8221 70.7066 50.4737C71.0327 50.3736 71.34 50.2784 71.5959 50.1799C72.7047 49.7531 73.4972 49.2901 74.02 48.7644C74.6444 48.1376 74.766 47.5371 74.7584 47.1441C74.7393 46.1933 73.9935 45.3484 72.8071 44.9346C72.4064 44.7732 71.9494 44.688 71.4841 44.688C71.1673 44.688 70.6982 44.7303 70.2542 44.9323C69.3036 45.3659 68.4521 45.6029 67.721 45.6366C67.3323 45.6175 67.0596 45.5353 66.883 45.4569C66.9052 45.086 66.9298 44.705 66.9552 44.3077L66.9657 44.1376C67.2261 40.1173 67.5496 35.1138 66.1908 32.1434C65.2594 30.109 64.0087 28.3593 62.4727 26.9407C61.1846 25.752 59.6881 24.7884 58.0241 24.0761C55.1283 22.8379 52.4288 22.653 51.0776 22.653Z" fill="#020202"/>
</svg>
