<svg width="100" height="100" viewBox="0 0 100 100" fill="none" xmlns="http://www.w3.org/2000/svg">
<path d="M0 50C0 77.6142 22.3858 100 50 100C77.6142 100 100 77.6142 100 50C100 22.3858 77.6142 0 50 0C22.3858 0 0 22.3858 0 50Z" fill="#1BD741"/>
<path d="M29.0824 81.3911C22.8468 82.9962 17.2172 77.2385 18.9623 71.0406C19.5791 68.85 19.2286 66.5231 18.2808 64.4541C16.2026 59.9179 15.1195 54.9718 15.1195 49.9172C15.1195 30.6591 30.7871 14.9915 50.0452 14.9915C69.3032 14.9915 84.9706 30.6591 84.9706 49.9172C84.9706 69.1752 69.3032 84.8428 50.0452 84.8428C45.2136 84.8428 40.463 83.847 36.0819 81.9366C34.0371 81.0449 31.7648 80.7006 29.6045 81.2567L29.0824 81.3911ZM32.6748 74.3485C33.4502 74.1489 34.2735 74.2717 34.9569 74.689C39.4889 77.4558 44.7065 78.9183 50.0452 78.9183C66.0364 78.9183 79.046 65.9084 79.046 49.9172C79.046 33.9259 66.0364 20.9161 50.0452 20.9161C34.0539 20.9161 21.0441 33.9259 21.0441 49.9172C21.0441 55.4891 22.6277 60.9 25.6233 65.5648C26.0812 66.2777 26.2118 67.1527 25.9822 67.9683L25.7632 68.7458C24.769 72.2773 27.9766 75.5579 31.5295 74.6433L32.6748 74.3485Z" fill="white"/>
<path d="M40.2339 33.6617L37.9677 33.5382C37.2558 33.4993 36.5576 33.7372 36.0196 34.2046C34.9209 35.1586 33.1642 37.0031 32.6246 39.4068C31.82 42.9907 33.0635 47.3792 36.2818 51.7678C39.5002 56.1563 45.4978 63.178 56.1034 66.1769C59.521 67.1433 62.2094 66.4918 64.2836 65.1649C65.9265 64.1141 67.059 62.4274 67.4671 60.5205L67.8289 58.8305C67.9439 58.2933 67.6712 57.7483 67.1722 57.5183L59.5131 53.9879C59.0158 53.7589 58.4262 53.9037 58.0918 54.3371L55.085 58.235C54.8579 58.5294 54.4691 58.6462 54.118 58.5229C52.0589 57.7992 45.1614 54.9104 41.3767 47.6202C41.2126 47.304 41.2534 46.9202 41.4862 46.6505L44.3598 43.3262C44.6534 42.9867 44.7276 42.5095 44.5512 42.0969L41.2497 34.3729C41.0739 33.9617 40.68 33.6861 40.2339 33.6617Z" fill="white"/>
</svg>
