<svg width="59" height="59" viewBox="0 0 59 59" fill="none" xmlns="http://www.w3.org/2000/svg">
<path d="M29.6751 59C25.4297 59 21.756 55.1114 20.5942 49.4776H1.21603C0.729721 49.4776 0.287961 49.1858 0.0981493 48.7351C-0.0936489 48.2854 0.000547826 47.7652 0.337897 47.4089C1.58799 46.0961 2.77793 45.0771 3.82885 44.1773C6.41103 41.9658 7.97067 40.6305 7.97067 37.1828V25.7787C8.02146 15.9656 14.5242 7.23619 23.55 4.69321C23.9875 2.70003 25.5747 0 29.4983 0C33.3814 0 34.9875 2.78668 35.4384 4.82375C44.5142 7.37586 51.0484 16.0514 51.0949 25.7747V37.5585C51.0949 40.9001 52.4749 42.0325 54.9749 44.0838C56.0777 44.9876 57.3255 46.0117 58.6619 47.4104C58.9981 47.7644 59.0945 48.2857 58.9016 48.7366C58.7107 49.1863 58.27 49.4791 57.7837 49.4791H38.754C37.5921 55.1117 33.9205 59 29.6751 59ZM23.2019 49.9174C24.2905 53.8385 26.8727 56.5559 29.6751 56.5559C32.4766 56.5559 35.0568 53.8385 36.1463 49.9174H23.2019ZM4.25614 47.0327H54.7099C54.2692 46.6562 53.8428 46.3065 53.4385 45.977C50.772 43.7888 48.6651 42.061 48.6651 37.5585V25.7787C48.6225 16.8951 42.4892 8.99052 34.0796 6.99335C33.5607 6.86994 33.1831 6.42102 33.1453 5.8866C33.1209 5.54172 32.7799 2.44294 29.5 2.44294C26.1237 2.44294 25.87 5.39807 25.8547 5.73668C25.8263 6.27937 25.4445 6.7374 24.9184 6.86082C16.5559 8.84373 10.4524 16.8033 10.4067 25.7859V37.184C10.4067 41.76 8.08955 43.7418 5.40778 46.0391C5.03922 46.3523 4.65336 46.683 4.25614 47.0327Z" fill="white"/>
<path d="M35.9829 6.62055C35.866 6.62055 35.7462 6.60316 35.6285 6.56639C29.1766 4.59374 23.8547 6.24802 23.8011 6.26541C23.1573 6.46948 22.479 6.11434 22.2738 5.4739C22.0687 4.83231 22.4191 4.14568 23.0566 3.93961C23.3012 3.86009 29.1215 2.02396 36.3361 4.22919C36.9787 4.42415 37.3402 5.10735 37.1464 5.75322C36.9861 6.2808 36.5026 6.62055 35.9829 6.62055Z" fill="white"/>
</svg>
