<svg width="65" height="65" viewBox="0 0 65 65" fill="none" xmlns="http://www.w3.org/2000/svg">
<mask id="path-1-inside-1_40_17" fill="white">
<path d="M32.5 8.125C19.0605 8.125 8.125 19.0605 8.125 32.5C8.125 45.9396 19.0605 56.875 32.5 56.875C45.9396 56.875 56.875 45.9396 56.875 32.5C56.875 19.0605 45.9396 8.125 32.5 8.125ZM32.5 54.2111C20.5256 54.2111 10.7889 44.4744 10.7889 32.5C10.7889 20.5256 20.5256 10.7889 32.5 10.7889C44.4744 10.7889 54.2111 20.5256 54.2111 32.5C54.2111 44.4744 44.4744 54.2111 32.5 54.2111Z"/>
</mask>
<path d="M32.5 8.125C19.0605 8.125 8.125 19.0605 8.125 32.5C8.125 45.9396 19.0605 56.875 32.5 56.875C45.9396 56.875 56.875 45.9396 56.875 32.5C56.875 19.0605 45.9396 8.125 32.5 8.125ZM32.5 54.2111C20.5256 54.2111 10.7889 44.4744 10.7889 32.5C10.7889 20.5256 20.5256 10.7889 32.5 10.7889C44.4744 10.7889 54.2111 20.5256 54.2111 32.5C54.2111 44.4744 44.4744 54.2111 32.5 54.2111Z" fill="black"/>
<path d="M32.5 5.125C17.4036 5.125 5.125 17.4036 5.125 32.5H11.125C11.125 20.7173 20.7173 11.125 32.5 11.125V5.125ZM5.125 32.5C5.125 47.5964 17.4036 59.875 32.5 59.875V53.875C20.7173 53.875 11.125 44.2827 11.125 32.5H5.125ZM32.5 59.875C47.5964 59.875 59.875 47.5964 59.875 32.5H53.875C53.875 44.2827 44.2827 53.875 32.5 53.875V59.875ZM59.875 32.5C59.875 17.4036 47.5964 5.125 32.5 5.125V11.125C44.2827 11.125 53.875 20.7173 53.875 32.5H59.875ZM32.5 51.2111C22.1825 51.2111 13.7889 42.8175 13.7889 32.5H7.78893C7.78893 46.1312 18.8688 57.2111 32.5 57.2111V51.2111ZM13.7889 32.5C13.7889 22.1825 22.1825 13.7889 32.5 13.7889V7.78893C18.8688 7.78893 7.78893 18.8688 7.78893 32.5H13.7889ZM32.5 13.7889C42.8175 13.7889 51.2111 22.1825 51.2111 32.5H57.2111C57.2111 18.8688 46.1312 7.78893 32.5 7.78893V13.7889ZM51.2111 32.5C51.2111 42.8175 42.8175 51.2111 32.5 51.2111V57.2111C46.1312 57.2111 57.2111 46.1312 57.2111 32.5H51.2111Z" fill="#A1A1A1" mask="url(#path-1-inside-1_40_17)"/>
<mask id="path-3-inside-2_40_17" fill="white">
<path d="M55.4631 9.53689C49.3094 3.3832 41.1578 0 32.5 0C23.8422 0 15.6906 3.3832 9.53689 9.53689C3.3832 15.6906 0 23.8422 0 32.5C0 41.1578 3.3832 49.3094 9.53689 55.4631C15.6906 61.6168 23.8422 65 32.5 65C41.1578 65 49.3094 61.6168 55.4631 55.4631C61.6168 49.3094 65 41.1578 65 32.5C65 23.8422 61.6168 15.6906 55.4631 9.53689ZM32.5 62.3361C16.0502 62.3361 2.66393 48.9498 2.66393 32.5C2.66393 16.0502 16.0502 2.66393 32.5 2.66393C48.9498 2.66393 62.3361 16.0502 62.3361 32.5C62.3361 48.9498 48.9498 62.3361 32.5 62.3361Z"/>
</mask>
<path d="M55.4631 9.53689C49.3094 3.3832 41.1578 0 32.5 0C23.8422 0 15.6906 3.3832 9.53689 9.53689C3.3832 15.6906 0 23.8422 0 32.5C0 41.1578 3.3832 49.3094 9.53689 55.4631C15.6906 61.6168 23.8422 65 32.5 65C41.1578 65 49.3094 61.6168 55.4631 55.4631C61.6168 49.3094 65 41.1578 65 32.5C65 23.8422 61.6168 15.6906 55.4631 9.53689ZM32.5 62.3361C16.0502 62.3361 2.66393 48.9498 2.66393 32.5C2.66393 16.0502 16.0502 2.66393 32.5 2.66393C48.9498 2.66393 62.3361 16.0502 62.3361 32.5C62.3361 48.9498 48.9498 62.3361 32.5 62.3361Z" fill="black"/>
<path d="M57.5844 7.41557C50.8708 0.701956 41.9572 -3 32.5 -3V3C40.3584 3 47.748 6.06445 53.3418 11.6582L57.5844 7.41557ZM32.5 -3C23.0428 -3 14.1292 0.701956 7.41557 7.41557L11.6582 11.6582C17.252 6.06445 24.6417 3 32.5 3V-3ZM7.41557 7.41557C0.701951 14.1292 -3 23.0428 -3 32.5H3C3 24.6417 6.06444 17.252 11.6582 11.6582L7.41557 7.41557ZM-3 32.5C-3 41.9572 0.70195 50.8708 7.41557 57.5844L11.6582 53.3418C6.06444 47.748 3 40.3584 3 32.5H-3ZM7.41557 57.5844C14.1292 64.2981 23.0428 68 32.5 68V62C24.6416 62 17.252 58.9356 11.6582 53.3418L7.41557 57.5844ZM32.5 68C41.9572 68 50.8708 64.2981 57.5844 57.5844L53.3418 53.3418C47.748 58.9356 40.3584 62 32.5 62V68ZM57.5844 57.5844C64.298 50.8708 68 41.9572 68 32.5H62C62 40.3584 58.9356 47.748 53.3418 53.3418L57.5844 57.5844ZM68 32.5C68 23.0428 64.298 14.1292 57.5844 7.41557L53.3418 11.6582C58.9356 17.252 62 24.6417 62 32.5H68ZM32.5 59.3361C17.7071 59.3361 5.66393 47.2929 5.66393 32.5H-0.336065C-0.336065 50.6067 14.3934 65.3361 32.5 65.3361V59.3361ZM5.66393 32.5C5.66393 17.7071 17.7071 5.66393 32.5 5.66393V-0.336065C14.3934 -0.336065 -0.336065 14.3934 -0.336065 32.5H5.66393ZM32.5 5.66393C47.2929 5.66393 59.3361 17.7071 59.3361 32.5H65.3361C65.3361 14.3934 50.6067 -0.336065 32.5 -0.336065V5.66393ZM59.3361 32.5C59.3361 47.2929 47.2929 59.3361 32.5 59.3361V65.3361C50.6067 65.3361 65.3361 50.6067 65.3361 32.5H59.3361Z" fill="#A1A1A1" mask="url(#path-3-inside-2_40_17)"/>
<mask id="path-5-inside-3_40_17" fill="white">
<path d="M44.4476 23.0697L28.9169 25.8135C28.5572 25.8801 28.2376 26.0933 28.0378 26.3996L19.2068 39.9058C18.9138 40.3453 18.9138 40.9314 19.2068 41.3709C19.4599 41.7439 19.8728 41.9703 20.3124 41.9703C20.3923 41.9703 20.4722 41.957 20.5388 41.9437L36.0695 39.1998C36.4292 39.1332 36.7488 38.9201 36.9486 38.6137L45.7796 25.1076C46.0859 24.668 46.0859 24.082 45.7929 23.6424C45.4999 23.2029 44.9671 22.9765 44.4476 23.0697ZM23.1228 38.7736L29.1167 29.5963L33.6853 36.9088L23.1228 38.7736ZM35.8831 35.4037L31.3144 28.0912L41.8769 26.2265L35.8831 35.4037Z"/>
</mask>
<path d="M44.4476 23.0697L28.9169 25.8135C28.5572 25.8801 28.2376 26.0933 28.0378 26.3996L19.2068 39.9058C18.9138 40.3453 18.9138 40.9314 19.2068 41.3709C19.4599 41.7439 19.8728 41.9703 20.3124 41.9703C20.3923 41.9703 20.4722 41.957 20.5388 41.9437L36.0695 39.1998C36.4292 39.1332 36.7488 38.9201 36.9486 38.6137L45.7796 25.1076C46.0859 24.668 46.0859 24.082 45.7929 23.6424C45.4999 23.2029 44.9671 22.9765 44.4476 23.0697ZM23.1228 38.7736L29.1167 29.5963L33.6853 36.9088L23.1228 38.7736ZM35.8831 35.4037L31.3144 28.0912L41.8769 26.2265L35.8831 35.4037Z" fill="black"/>
<path d="M44.4476 23.0697L44.9695 26.0239L44.9776 26.0225L44.4476 23.0697ZM28.9169 25.8135L28.3949 22.8593L28.3828 22.8614L28.3706 22.8637L28.9169 25.8135ZM28.0378 26.3996L30.5487 28.0414L30.5506 28.0384L28.0378 26.3996ZM19.2068 39.9058L21.703 41.5699L21.7104 41.5587L21.7177 41.5475L19.2068 39.9058ZM19.2068 41.3709L16.7107 43.035L16.7175 43.0453L16.7244 43.0554L19.2068 41.3709ZM20.5388 41.9437L20.0169 38.9894L19.9836 38.9953L19.9505 39.0019L20.5388 41.9437ZM36.0695 39.1998L36.5915 42.1541L36.6036 42.1519L36.6158 42.1497L36.0695 39.1998ZM36.9486 38.6137L34.4377 36.972L34.4358 36.9749L36.9486 38.6137ZM45.7796 25.1076L43.3184 23.3922L43.293 23.4287L43.2687 23.4658L45.7796 25.1076ZM23.1228 38.7736L20.6111 37.1331L16.8237 42.9321L23.6444 41.7279L23.1228 38.7736ZM29.1167 29.5963L31.6609 28.0067L29.1728 24.0242L26.6049 27.9559L29.1167 29.5963ZM33.6853 36.9088L34.2069 39.8631L38.5855 39.0901L36.2296 35.3193L33.6853 36.9088ZM35.8831 35.4037L33.3388 36.9933L35.827 40.9758L38.3948 37.0442L35.8831 35.4037ZM31.3144 28.0912L30.7928 25.1369L26.4142 25.9099L28.7702 29.6808L31.3144 28.0912ZM41.8769 26.2265L44.3887 27.8669L48.1761 22.068L41.3553 23.2721L41.8769 26.2265ZM43.9257 20.1154L28.3949 22.8593L29.4388 28.7678L44.9695 26.0239L43.9257 20.1154ZM28.3706 22.8637C27.2037 23.0798 26.1732 23.7668 25.5249 24.7608L30.5506 28.0384C30.3019 28.4198 29.9108 28.6805 29.4631 28.7634L28.3706 22.8637ZM25.5269 24.7579L16.6959 38.264L21.7177 41.5475L30.5487 28.0414L25.5269 24.7579ZM16.7107 38.2417C15.7459 39.6889 15.7459 41.5878 16.7107 43.035L21.703 39.7068C22.0818 40.275 22.0818 41.0017 21.703 41.5699L16.7107 38.2417ZM16.7244 43.0554C17.508 44.2102 18.83 44.9703 20.3124 44.9703V38.9703C20.9156 38.9703 21.4118 39.2775 21.6893 39.6864L16.7244 43.0554ZM20.3124 44.9703C20.695 44.9703 21.0082 44.9092 21.1272 44.8854L19.9505 39.0019C19.9523 39.0016 19.9882 38.9943 20.0425 38.9872C20.096 38.9802 20.19 38.9703 20.3124 38.9703V44.9703ZM21.0607 44.8979L36.5915 42.1541L35.5476 36.2456L20.0169 38.9894L21.0607 44.8979ZM36.6158 42.1497C37.7827 41.9336 38.8132 41.2466 39.4615 40.2526L34.4358 36.9749C34.6845 36.5936 35.0756 36.3329 35.5233 36.25L36.6158 42.1497ZM39.4595 40.2555L48.2905 26.7493L43.2687 23.4658L34.4377 36.972L39.4595 40.2555ZM48.2408 26.823C49.2632 25.356 49.2561 23.4288 48.289 21.9783L43.2967 25.3065C42.9158 24.7351 42.9087 23.9801 43.3184 23.3922L48.2408 26.823ZM48.289 21.9783C47.3329 20.5441 45.6111 19.8129 43.9176 20.1169L44.9776 26.0225C44.3231 26.14 43.6668 25.8616 43.2967 25.3065L48.289 21.9783ZM25.6346 40.4141L31.6284 31.2368L26.6049 27.9559L20.6111 37.1331L25.6346 40.4141ZM26.5724 31.1859L31.1411 38.4984L36.2296 35.3193L31.6609 28.0067L26.5724 31.1859ZM33.1637 33.9545L22.6013 35.8193L23.6444 41.7279L34.2069 39.8631L33.1637 33.9545ZM38.4273 33.8141L33.8587 26.5016L28.7702 29.6808L33.3388 36.9933L38.4273 33.8141ZM31.836 31.0455L42.3985 29.1808L41.3553 23.2721L30.7928 25.1369L31.836 31.0455ZM39.3652 24.586L33.3713 33.7632L38.3948 37.0442L44.3887 27.8669L39.3652 24.586Z" fill="#A1A1A1" mask="url(#path-5-inside-3_40_17)"/>
</svg>
