<svg width="95" height="98" viewBox="0 0 95 98" fill="none" xmlns="http://www.w3.org/2000/svg">
<g filter="url(#filter0_d_62_6)">
<path d="M27.776 6.90615L28.0311 8.16432L29.1886 7.60897C34.7371 4.9468 40.9471 3.45685 47.5014 3.45685C70.9384 3.45685 90.0027 22.524 90 45.9581C90 69.3953 70.9327 88.4625 47.5014 88.4625C24.0672 88.4625 5 69.3953 5 45.9583C5 31.9822 11.786 19.5563 22.2415 11.8002L23.1448 11.1301L22.3736 10.3114L16.3163 3.88129L19.4895 1.46819L24.1991 9.22701L24.753 10.1394L25.5982 9.54779L25.6 9.54683C25.6121 9.54016 25.6321 9.52907 25.6552 9.51524L26.3839 9.07799L26.0699 8.28825L24.5932 4.57451L27.1484 3.81195L27.776 6.90615ZM15.3552 37.9375H14.5504L14.3784 38.7237C13.8678 41.0574 13.5997 43.4795 13.5997 45.9583C13.5997 64.6655 28.8053 79.8655 47.5014 79.8655C66.1948 79.8655 81.4031 64.6541 81.4031 45.9583C81.4031 43.4788 81.132 41.0566 80.6216 38.7237L80.4496 37.9375H79.6448H45.7406L36.9798 29.3663L35.2584 27.6822L35.2805 30.0902L35.3524 37.9375H15.3552Z" fill="#DDDDDD" stroke="black" stroke-width="2"/>
<path d="M38.8762 49.4364C38.8762 51.4959 37.2067 53.1654 35.1472 53.1654C33.0877 53.1654 31.4182 51.4959 31.4182 49.4364C31.4182 47.3769 33.0877 45.7074 35.1472 45.7074C37.2067 45.7074 38.8762 47.3769 38.8762 49.4364Z" fill="#DDDDDD" stroke="black" stroke-width="2"/>
<path d="M65.4762 49.4364C65.4762 51.4959 63.8067 53.1654 61.7472 53.1654C59.6877 53.1654 58.0182 51.4959 58.0182 49.4364C58.0182 47.3769 59.6877 45.7074 61.7472 45.7074C63.8067 45.7074 65.4762 47.3769 65.4762 49.4364Z" fill="#DDDDDD" stroke="black" stroke-width="2"/>
<path d="M58.7556 60.5577C57.0435 64.5807 53.078 67.4561 48.4276 67.4561C43.7776 67.4561 39.8118 64.5811 38.0955 60.5577H58.7556Z" fill="#DDDDDD" stroke="black" stroke-width="2"/>
</g>
<path d="M68.5 18C68.5 12.201 73.201 7.5 79 7.5C84.7989 7.5 89.5 12.201 89.5 18C89.5 23.7989 84.7989 28.5 79 28.5C73.201 28.5 68.5 23.7989 68.5 18Z" fill="#FA00FF" stroke="#040000" stroke-width="3"/>
<defs>
<filter id="filter0_d_62_6" x="0" y="0" width="95" height="97.4625" filterUnits="userSpaceOnUse" color-interpolation-filters="sRGB">
<feFlood flood-opacity="0" result="BackgroundImageFix"/>
<feColorMatrix in="SourceAlpha" type="matrix" values="0 0 0 0 0 0 0 0 0 0 0 0 0 0 0 0 0 0 127 0" result="hardAlpha"/>
<feOffset dy="4"/>
<feGaussianBlur stdDeviation="2"/>
<feComposite in2="hardAlpha" operator="out"/>
<feColorMatrix type="matrix" values="0 0 0 0 0 0 0 0 0 0 0 0 0 0 0 0 0 0 0.25 0"/>
<feBlend mode="normal" in2="BackgroundImageFix" result="effect1_dropShadow_62_6"/>
<feBlend mode="normal" in="SourceGraphic" in2="effect1_dropShadow_62_6" result="shape"/>
</filter>
</defs>
</svg>
