<svg width="65" height="61" viewBox="0 0 65 61" fill="none" xmlns="http://www.w3.org/2000/svg">
<path d="M64.8926 18.0211C63.9438 7.57798 56.552 0.00125014 47.3014 0.00125014C41.1386 0.00125014 35.4957 3.31771 32.3205 8.63305C29.1741 3.24896 23.7625 0 17.6983 0C8.44899 0 1.05602 7.57673 0.108461 18.0199C0.0334563 18.4812 -0.274063 20.9088 0.660996 24.8678C2.00858 30.5782 5.12128 35.7723 9.66032 39.885L32.3055 60.4351L55.3395 39.8863C59.8785 35.7723 62.9912 30.5794 64.3388 24.8678C65.2738 20.9101 64.9663 18.4824 64.8926 18.0211ZM61.9049 24.2953C60.6748 29.5106 57.8234 34.2622 53.6669 38.0274L32.3205 57.0724L11.3404 38.0324C7.17641 34.2597 4.32623 29.5094 3.0949 24.294C2.20984 20.5476 2.57362 18.4312 2.57487 18.4174L2.59362 18.2912C3.40617 9.14183 9.75782 2.50016 17.6983 2.50016C23.5574 2.50016 28.7153 6.10039 31.1629 11.8945L32.3143 14.6234L33.4656 11.8945C35.8745 6.18914 41.3048 2.50141 47.3027 2.50141C55.242 2.50141 61.5949 9.14308 62.4237 18.4112C62.4262 18.4312 62.7899 20.5488 61.9049 24.2953Z" fill="white"/>
</svg>
