<svg width="65" height="65" viewBox="0 0 65 65" fill="none" xmlns="http://www.w3.org/2000/svg">
<path d="M22.0309 4.91667H21.5309V5.41667V59.5833V60.0833H22.0309H26.4371H26.9371V59.5833V5.41667V4.91667H26.4371H22.0309ZM36.5278 7.31163L37.7141 4.18494L45.5757 0.668703L48.0013 2.0618L64.4727 57.6949L63.2887 60.8151L55.4315 64.3313L53.0059 62.9382L36.5278 7.31163ZM40.6896 7.52232L40.2901 7.70103L40.4144 8.1207L55.4835 59.0157L55.6455 59.5628L56.1666 59.3304L60.3084 57.4833L60.7085 57.3049L60.5842 56.8847L45.515 5.98431L45.3529 5.43661L44.8314 5.66982L40.6896 7.52232ZM4.40618 4.91667H3.90618V5.41667V59.5833V60.0833H4.40618H8.81236H9.31236V59.5833V5.41667V4.91667H8.81236H4.40618ZM18.1247 62.114V2.88601L20.0656 0.5H28.4024L30.3433 2.88601V62.114L28.4024 64.5H20.0656L18.1247 62.114ZM0.5 2.88601L2.4409 0.5H10.7776L12.7185 2.88601V62.114L10.7776 64.5H2.4409L0.5 62.114V2.88601Z" fill="#A1A1A1" stroke="black"/>
</svg>
