<svg width="66" height="65" viewBox="0 0 66 65" fill="none" xmlns="http://www.w3.org/2000/svg">
<path d="M65.8599 30.6605L35.1994 0V20.0862C26.0138 20.5678 17.4462 24.3745 10.8933 30.9274C3.86863 37.9519 0 47.2915 0 57.226V65L3.73922 58.1844C9.57323 47.5502 20.741 40.9442 32.8839 40.9442C33.6539 40.9442 34.428 40.9714 35.1994 41.0255V61.321L65.8599 30.6605ZM32.8839 36.9591C22.0089 36.9591 11.8318 41.6918 4.84984 49.679C8.27584 34.9921 21.4764 24.0189 37.1918 24.0189H39.1842V9.62018L60.2244 30.6604L39.1842 51.7005V37.4563L37.4367 37.2398C35.9331 37.0537 34.4014 36.9591 32.8839 36.9591Z" fill="white"/>
</svg>
